<?xml version="1.0" standalone="no"?>
<!DOCTYPE svg PUBLIC "-//W3C//DTD SVG 20010904//EN"
 "http://www.w3.org/TR/2001/REC-SVG-20010904/DTD/svg10.dtd">
<svg version="1.0" xmlns="http://www.w3.org/2000/svg"
 width="618.000000pt" height="1000.000000pt" viewBox="0 0 618.000000 1000.000000"
 preserveAspectRatio="xMidYMid meet">

<g transform="translate(0.000000,1000.000000) scale(0.100000,-0.100000)"
fill="#000000" stroke="none">
<path d="M0 6850 c0 -176 3 -320 8 -320 4 1 28 13 53 28 26 15 148 85 273 157
124 71 222 133 218 136 -7 7 -484 284 -529 308 l-23 12 0 -321z"/>
<path d="M3400 6205 c0 -173 -2 -315 -5 -315 -7 0 -508 290 -519 301 -11 10
-26 2 -251 -129 -272 -158 -315 -184 -315 -191 0 -8 20 -20 148 -92 20 -12 62
-36 92 -54 30 -18 75 -44 100 -58 25 -13 81 -45 125 -71 44 -25 83 -46 88 -46
4 0 24 10 45 23 20 13 62 37 92 54 30 17 134 76 231 132 97 55 181 101 187
101 12 0 45 -18 207 -112 33 -20 80 -46 105 -60 25 -14 84 -48 132 -77 48 -28
91 -51 97 -51 8 0 11 100 11 319 l0 320 -29 20 c-16 12 -32 21 -35 21 -3 0
-54 29 -113 64 -60 35 -128 74 -153 88 -25 14 -85 48 -133 77 -49 28 -93 51
-98 51 -5 0 -9 -130 -9 -315z"/>
<path d="M0 6194 l0 -315 58 32 c334 192 475 276 476 284 1 9 -67 53 -174 112
-30 16 -101 58 -158 91 -56 34 -105 62 -108 62 -3 0 -22 11 -42 25 -20 14 -40
25 -44 25 -5 0 -8 -142 -8 -316z"/>
<path d="M1630 4837 c-30 -18 -80 -47 -110 -64 -30 -17 -111 -63 -180 -103
-69 -40 -144 -84 -168 -97 l-42 -25 2 -326 3 -326 90 -53 c50 -29 97 -56 105
-60 8 -4 47 -25 85 -49 39 -23 86 -50 105 -61 19 -10 65 -36 103 -58 l67 -39
0 -318 c0 -298 -1 -317 -17 -310 -24 9 -157 84 -163 91 -3 3 -25 17 -50 29
-25 13 -63 35 -85 48 -22 13 -57 32 -77 44 -65 35 -107 67 -100 75 4 5 -1 5
-10 2 -10 -4 -18 -2 -18 4 0 5 -10 7 -22 4 -13 -3 -33 0 -45 7 -12 7 -84 49
-160 93 -76 43 -144 85 -151 92 -7 7 -18 13 -23 13 -5 0 -39 18 -75 40 -36 22
-70 40 -75 40 -4 0 -20 11 -34 25 l-25 26 0 324 0 323 -112 64 c-61 34 -127
73 -147 84 -141 84 -284 164 -292 164 -5 0 -9 -267 -9 -649 l0 -649 83 -48
c45 -27 102 -59 127 -73 25 -13 56 -31 70 -41 57 -38 277 -158 302 -164 15 -3
33 -12 40 -19 7 -6 27 -19 43 -27 17 -8 41 -22 55 -31 25 -17 68 -41 145 -82
22 -12 42 -25 45 -28 3 -3 25 -15 50 -27 61 -31 106 -58 165 -103 28 -20 66
-46 85 -57 133 -75 427 -245 435 -252 5 -4 20 -11 32 -14 l23 -7 2 320 3 321
185 -106 c102 -59 200 -115 218 -125 17 -11 47 -27 65 -38 17 -10 46 -27 63
-37 l31 -18 99 59 c54 32 124 71 154 88 30 17 66 38 80 47 14 9 50 30 80 47
98 54 135 75 143 82 6 6 -87 67 -178 117 -68 37 -129 72 -190 109 -38 23 -94
55 -122 71 -29 16 -52 33 -50 38 2 4 21 18 42 31 120 67 460 264 524 302 41
25 89 54 107 64 53 30 96 54 140 80 23 13 100 58 173 99 l131 75 0 328 0 329
-32 -20 c-44 -26 -214 -125 -260 -151 -84 -47 -108 -61 -173 -100 -37 -23 -68
-41 -70 -41 -2 0 -43 -23 -92 -51 -48 -28 -103 -60 -120 -70 -36 -21 -38 -22
-231 -133 -73 -42 -139 -79 -146 -82 -7 -3 -69 27 -137 67 -68 39 -144 83
-169 97 -24 14 -83 48 -130 76 -47 28 -98 57 -113 65 l-27 14 0 324 c0 178 -3
323 -7 323 -5 0 -33 -15 -63 -33z"/>
<path d="M4755 4700 c-3 -6 1 -7 9 -4 18 7 21 14 7 14 -6 0 -13 -4 -16 -10z"/>
<path d="M6080 4133 c-52 -31 -162 -95 -244 -142 -82 -47 -149 -90 -148 -96 2
-8 66 -49 217 -135 17 -9 85 -49 153 -88 l122 -71 0 294 c0 162 -1 295 -2 295
-2 -1 -46 -26 -98 -57z"/>
</g>
</svg>
