<?xml version="1.0" standalone="no"?>
<!DOCTYPE svg PUBLIC "-//W3C//DTD SVG 20010904//EN"
 "http://www.w3.org/TR/2001/REC-SVG-20010904/DTD/svg10.dtd">
<svg version="1.0" xmlns="http://www.w3.org/2000/svg"
 width="366.000000pt" height="528.000000pt" viewBox="0 0 366.000000 528.000000"
 preserveAspectRatio="xMidYMid meet">

<g transform="translate(0.000000,528.000000) scale(0.100000,-0.100000)"
fill="#000000" stroke="none">
<path d="M2805 5071 c-103 -47 -317 -327 -427 -557 -46 -96 -52 -105 -73 -100
-179 45 -400 22 -593 -61 -70 -30 -86 -33 -96 -22 -7 8 -45 53 -85 101 -118
142 -321 317 -432 374 -102 51 -163 42 -290 -42 -87 -57 -302 -268 -377 -369
-76 -102 -86 -127 -79 -200 8 -86 60 -240 101 -301 58 -85 108 -105 234 -91
19 2 27 -9 57 -77 57 -132 140 -246 237 -327 31 -26 61 -48 67 -50 8 -3 5 -33
-9 -99 -47 -220 -52 -255 -46 -315 17 -168 166 -329 424 -457 45 -23 82 -48
82 -55 0 -31 -37 -83 -119 -168 -307 -316 -444 -499 -577 -765 -59 -119 -96
-222 -124 -342 -12 -54 -26 -98 -30 -98 -5 0 -27 28 -49 63 -102 154 -121 369
-55 593 40 132 41 148 10 178 -111 112 -369 -147 -417 -419 -7 -38 -18 -77
-25 -85 -31 -36 -44 -91 -44 -177 0 -179 70 -357 192 -489 95 -103 268 -208
411 -249 51 -15 61 -21 75 -54 46 -101 84 -159 120 -179 61 -34 225 -55 435
-57 186 -2 188 -2 215 -27 66 -62 159 -83 340 -75 160 6 219 24 277 81 34 34
46 56 56 100 12 54 13 56 44 56 30 0 33 -3 44 -44 26 -104 170 -156 396 -143
157 9 225 39 263 112 7 14 28 24 69 33 77 16 117 42 145 94 34 66 31 138 -10
221 -34 69 -98 131 -149 143 -13 4 -23 8 -23 11 0 2 18 41 39 86 106 223 91
424 -43 591 l-41 51 9 124 c12 153 -2 306 -45 506 -42 197 -69 351 -69 396 0
36 4 40 70 85 232 155 384 346 411 514 17 105 7 146 -93 372 l-69 157 46 56
c80 98 138 235 170 398 l18 87 39 0 c123 0 192 111 205 331 7 117 -8 188 -49
235 -63 71 -292 224 -439 293 -150 71 -249 87 -324 52z m186 -130 c120 -41
310 -154 438 -261 l64 -53 -5 -121 c-6 -133 -20 -184 -62 -211 -89 -59 -294
93 -466 345 -92 134 -118 156 -176 146 -38 -8 -45 -21 -14 -29 18 -5 15 -12
-29 -85 -63 -106 -102 -224 -108 -333 -6 -92 4 -129 36 -129 10 0 24 7 31 15
17 20 24 19 35 -7 6 -13 20 -24 32 -26 22 -3 22 -5 8 -33 -15 -28 -14 -30 8
-52 99 -91 143 -137 168 -174 37 -53 63 -55 106 -10 63 66 113 191 113 281 0
41 1 42 42 19 30 -18 30 -19 25 -83 -10 -124 -81 -297 -159 -394 l-24 -28 -74
92 c-140 174 -139 173 -81 43 22 -48 78 -176 124 -283 47 -107 100 -228 118
-269 l34 -73 -39 -34 c-79 -68 -200 -95 -314 -69 -58 13 -88 28 -150 73 -146
105 -191 133 -264 159 -66 24 -87 27 -208 27 -124 0 -141 -3 -210 -28 -103
-39 -174 -87 -245 -164 -150 -165 -199 -208 -258 -230 -85 -32 -203 -30 -296
4 -39 15 -71 31 -71 38 0 6 14 72 30 146 17 74 44 214 60 310 16 96 33 196 38
223 5 26 8 47 6 47 -3 0 -34 -61 -70 -135 l-66 -135 -36 29 c-99 78 -182 191
-237 322 -31 72 -31 77 -2 113 l23 28 13 -43 c38 -130 164 -279 236 -279 8 0
32 38 53 84 22 46 58 108 81 138 46 62 49 77 21 103 -26 23 -25 33 2 37 17 2
23 9 22 26 -1 22 2 23 41 17 34 -5 44 -3 49 10 11 30 6 64 -19 132 -39 102
-100 198 -176 276 -63 64 -68 71 -52 83 16 12 13 13 -25 14 -59 0 -78 -24
-126 -156 -95 -263 -231 -449 -343 -470 -40 -8 -58 0 -85 37 -27 36 -70 166
-75 229 -5 53 -3 57 42 120 26 36 106 124 179 195 151 149 239 209 295 201 92
-14 357 -242 499 -430 29 -38 52 -72 52 -76 0 -4 -16 -27 -35 -51 -19 -24 -35
-48 -35 -52 0 -5 19 4 43 18 69 43 212 113 282 140 185 69 413 71 638 4 38
-11 73 -19 79 -17 6 2 -10 19 -35 38 -26 19 -47 41 -47 48 0 23 59 153 112
245 67 117 181 269 251 335 64 60 95 65 188 33z m-125 -303 c46 -90 130 -211
200 -287 l67 -72 -17 -62 c-18 -63 -77 -191 -101 -215 -10 -11 -18 -6 -45 31
-18 25 -50 60 -72 77 l-39 32 43 37 42 38 -27 17 c-14 10 -44 20 -67 23 -22 3
-40 8 -40 10 0 2 14 24 30 48 17 24 30 46 30 49 0 13 -62 5 -110 -13 l-50 -19
0 22 c0 27 42 178 65 231 18 43 54 105 61 105 2 0 16 -24 30 -52z m-1734 -225
c19 -21 49 -58 65 -83 30 -44 93 -164 93 -175 0 -3 -26 -3 -57 0 -36 4 -69 2
-88 -5 l-30 -12 43 -38 c23 -21 42 -40 42 -44 0 -3 -15 -12 -32 -19 -40 -17
-72 -52 -63 -67 3 -5 24 -19 46 -30 21 -11 39 -23 39 -26 0 -3 -9 -19 -21 -35
-11 -16 -32 -56 -48 -90 l-28 -61 -64 70 c-35 38 -79 98 -98 133 l-33 64 45
75 c49 81 93 191 123 308 10 39 21 72 24 72 3 0 22 -17 42 -37z m1253 -1112
c75 -19 175 -67 265 -126 107 -69 213 -94 320 -75 61 11 172 59 185 80 17 28
27 6 23 -49 -13 -175 -182 -351 -565 -587 -87 -53 -169 -103 -181 -111 -13 -8
-22 -16 -20 -18 6 -6 187 40 232 59 47 19 56 12 56 -46 0 -21 20 -136 44 -255
24 -120 50 -263 56 -317 16 -126 7 -334 -20 -481 -46 -248 -72 -469 -74 -627
-1 -138 -3 -158 -17 -158 -9 0 -31 -5 -48 -11 -37 -13 -25 -29 22 -29 38 0 99
-33 130 -70 50 -59 59 -158 17 -200 -36 -36 -292 -40 -372 -7 -45 19 -45 18
-53 327 -3 124 -9 258 -14 298 l-7 74 39 51 c54 73 133 239 150 320 8 37 14
67 13 67 -2 0 -19 -33 -40 -73 -52 -104 -158 -240 -235 -303 -65 -54 -178
-117 -235 -130 l-29 -7 6 204 c4 112 9 249 12 304 l5 100 -26 -75 c-64 -187
-101 -471 -91 -701 3 -74 7 -141 9 -149 2 -10 -13 -16 -55 -22 -87 -11 -100
-24 -32 -31 69 -7 157 -48 184 -85 43 -61 46 -158 6 -202 -25 -28 -93 -40
-222 -40 -128 0 -184 11 -214 41 -17 17 -19 34 -19 152 0 116 -4 149 -35 277
-106 440 -133 577 -151 760 -7 71 -8 73 -15 35 -12 -60 -10 -303 2 -413 5 -53
21 -164 35 -246 13 -82 23 -151 21 -152 -1 -2 -21 3 -42 11 -22 8 -53 14 -69
15 -23 0 -27 3 -21 18 87 206 60 440 -68 588 -35 39 -153 112 -164 100 -3 -3
12 -25 33 -48 55 -60 79 -101 108 -190 22 -64 26 -95 26 -185 0 -174 -39 -275
-142 -364 -32 -28 -57 -53 -56 -55 2 -2 31 4 63 13 80 21 189 20 242 -2 24 -9
57 -33 74 -53 30 -34 31 -38 27 -110 -3 -47 -10 -77 -19 -84 -24 -16 -353 -2
-439 19 l-75 18 -32 60 c-38 71 -88 215 -102 299 -16 86 -13 282 4 373 43 222
165 474 347 716 78 105 162 200 316 360 114 118 172 200 172 245 0 15 -9 15
103 -2 137 -22 271 -31 263 -18 -3 6 -21 14 -39 17 -52 12 -333 122 -445 175
-204 97 -344 217 -378 325 -10 30 -15 57 -12 60 3 3 24 -2 48 -10 77 -27 164
-36 238 -25 106 16 172 56 304 178 131 121 211 171 330 202 97 25 249 26 343
1z m-1983 -1641 c-23 -92 -22 -323 1 -410 33 -123 89 -223 172 -306 l75 -75 0
-55 c0 -30 7 -89 16 -130 8 -42 13 -78 10 -81 -10 -10 -192 87 -248 132 -112
90 -209 253 -223 375 l-6 55 20 -25 c55 -69 53 -68 46 -40 -4 14 -9 84 -12
155 -6 151 6 217 63 333 31 64 91 148 100 140 1 -2 -5 -32 -14 -68z m2538
-473 c23 -109 4 -218 -58 -327 l-37 -65 -3 44 c-4 55 13 227 35 354 l17 97 17
-27 c10 -15 23 -49 29 -76z m-685 -546 c7 -190 6 -204 -10 -198 -9 4 -27 7
-41 7 -16 0 -28 10 -40 33 -9 17 -34 48 -56 68 -37 35 -39 40 -49 129 -6 51
-7 96 -2 100 4 4 31 15 58 24 28 9 66 25 85 36 19 10 38 15 41 12 4 -4 10 -99
14 -211z m705 -49 c74 -37 109 -151 58 -186 -38 -27 -55 -20 -62 25 -8 52 -28
90 -73 140 l-35 39 38 0 c22 0 55 -8 74 -18z"/>
<path d="M2510 3786 c-14 -8 -36 -34 -50 -58 -21 -36 -25 -56 -25 -128 0 -77
3 -90 31 -140 48 -85 120 -118 183 -85 71 36 107 117 98 220 -5 72 -33 131
-82 173 -29 27 -44 32 -83 32 -26 -1 -58 -7 -72 -14z m72 -73 c35 -31 16 -103
-27 -103 -25 0 -55 33 -55 60 0 23 29 60 47 60 9 0 25 -7 35 -17z"/>
<path d="M1554 3671 c-48 -29 -78 -101 -78 -187 0 -131 75 -234 169 -234 54 0
90 28 121 94 85 182 -67 415 -212 327z m126 -71 c35 -35 19 -100 -25 -100 -25
0 -55 33 -55 60 0 22 29 60 46 60 8 0 23 -9 34 -20z"/>
<path d="M2128 3269 c-74 -11 -148 -43 -184 -80 -72 -75 3 -213 154 -285 47
-22 52 -28 52 -58 0 -29 -7 -38 -55 -71 -106 -73 -217 -78 -292 -12 l-36 32
16 -30 c45 -87 146 -127 250 -100 57 15 79 25 143 65 31 20 31 20 90 -1 162
-57 313 -1 339 126 l6 30 -16 -27 c-8 -15 -37 -40 -63 -55 -62 -37 -141 -38
-226 -2 -52 21 -61 29 -69 58 -7 29 -5 35 15 49 117 79 182 236 128 305 -37
47 -145 71 -252 56z m155 -78 c21 -21 -79 -54 -165 -55 -116 -1 -126 31 -20
61 52 14 168 11 185 -6z"/>
</g>
</svg>
