<?xml version="1.0" standalone="no"?>
<!DOCTYPE svg PUBLIC "-//W3C//DTD SVG 20010904//EN"
 "http://www.w3.org/TR/2001/REC-SVG-20010904/DTD/svg10.dtd">
<svg version="1.0" xmlns="http://www.w3.org/2000/svg"
 width="2048.000000pt" height="2048.000000pt" viewBox="0 0 2048.000000 2048.000000"
 preserveAspectRatio="xMidYMid meet">

<g transform="translate(0.000000,2048.000000) scale(0.100000,-0.100000)"
fill="#000000" stroke="none">
<path d="M12620 16096 c-156 -44 -311 -184 -571 -521 -252 -325 -489 -719
-601 -1000 -42 -105 -25 -100 -218 -66 -160 28 -430 38 -595 22 -267 -27 -512
-95 -775 -215 -79 -36 -147 -62 -151 -58 -3 4 -35 45 -70 92 -243 323 -682
745 -1015 973 -142 98 -259 154 -362 174 -75 15 -89 15 -161 1 -205 -41 -481
-237 -846 -603 -267 -266 -490 -538 -561 -681 -61 -125 -47 -333 42 -614 66
-211 136 -345 235 -454 123 -134 304 -178 484 -118 l56 19 10 -26 c98 -269
210 -477 365 -678 94 -122 262 -285 372 -363 52 -36 92 -72 92 -81 0 -25 -45
-239 -94 -453 -57 -241 -70 -345 -62 -467 15 -240 109 -437 306 -643 188 -196
423 -357 765 -522 l156 -76 -7 -32 c-11 -53 -43 -126 -75 -172 -17 -25 -130
-147 -252 -272 -470 -482 -723 -782 -976 -1157 -158 -234 -258 -406 -372 -640
-180 -370 -254 -593 -339 -1020 l-12 -60 -40 45 c-106 120 -205 304 -256 475
-49 166 -65 280 -65 470 0 253 33 444 124 717 53 161 59 210 30 274 -37 81
-141 135 -233 120 -97 -16 -238 -109 -369 -243 -158 -161 -268 -327 -348 -528
-45 -112 -95 -306 -106 -409 -6 -57 -12 -72 -41 -103 -40 -43 -68 -97 -91
-183 -28 -104 -25 -389 6 -540 121 -588 488 -1049 1056 -1325 163 -80 281
-124 420 -160 l90 -23 43 -98 c56 -127 167 -327 204 -370 62 -70 188 -112 461
-153 320 -49 790 -66 1007 -37 l95 13 50 -55 c141 -156 342 -215 740 -216 314
0 486 27 642 104 127 63 197 143 249 285 13 34 26 90 30 124 l7 61 81 0 82 0
13 -62 c18 -91 43 -141 100 -201 62 -66 127 -100 252 -131 140 -36 223 -46
425 -53 276 -9 511 24 644 92 70 35 141 109 171 178 l24 56 55 6 c96 11 221
44 272 72 66 36 143 120 178 195 73 157 58 336 -43 533 -75 145 -240 287 -390
335 -34 11 -37 14 -24 28 28 32 105 178 146 273 84 199 121 377 121 580 0 309
-107 582 -315 807 l-58 63 12 112 c53 516 30 843 -105 1473 -129 605 -154 755
-154 902 l1 77 72 45 c258 159 553 406 723 603 272 316 387 594 371 896 -9
179 -33 247 -271 778 -69 155 -126 285 -126 290 0 4 29 42 65 83 245 281 420
706 480 1163 l6 47 68 0 c173 0 322 88 399 237 92 178 127 359 127 658 0 371
-33 432 -368 683 -629 471 -1224 727 -1507 648z m263 -310 c191 -49 421 -156
686 -321 253 -157 554 -385 598 -452 28 -43 31 -368 5 -518 -42 -239 -103
-325 -228 -325 -191 0 -474 182 -730 471 -118 132 -177 210 -302 399 -202 306
-238 340 -360 340 -84 0 -180 -40 -129 -54 6 -2 31 -9 55 -15 l43 -12 -35 -42
c-83 -103 -201 -324 -259 -487 -112 -314 -142 -610 -75 -734 33 -59 62 -60
146 -1 l67 46 3 -48 c4 -62 19 -73 101 -73 l64 0 -20 -22 c-36 -40 -63 -92
-63 -123 0 -33 36 -73 115 -130 98 -70 213 -192 318 -335 38 -52 78 -103 89
-112 66 -58 186 37 299 234 84 149 144 348 157 523 l7 93 72 -48 c39 -26 77
-50 84 -52 11 -4 10 -32 -5 -148 -38 -311 -141 -605 -289 -825 -46 -68 -148
-195 -157 -195 -3 0 -28 30 -55 67 -96 131 -405 497 -412 489 -3 -2 3 -18 12
-35 32 -63 316 -724 380 -887 24 -60 83 -193 131 -295 145 -310 216 -471 221
-504 4 -28 0 -36 -43 -71 -186 -153 -361 -216 -597 -215 -237 1 -389 64 -647
266 -292 229 -497 328 -781 376 -104 18 -151 20 -294 16 -311 -9 -553 -83
-789 -241 -149 -100 -250 -196 -420 -400 -162 -194 -215 -247 -315 -311 -142
-92 -296 -135 -484 -135 -122 0 -192 10 -302 42 -91 26 -245 97 -245 113 0 33
35 209 75 377 65 271 84 374 159 849 15 91 44 250 65 353 21 103 35 185 30
184 -9 -3 -239 -466 -289 -580 -18 -43 -36 -78 -40 -78 -10 0 -132 91 -195
146 -76 66 -181 188 -263 307 -72 103 -194 344 -246 486 l-35 94 60 65 c32 36
59 69 59 73 0 5 4 9 8 9 5 0 13 -26 19 -59 54 -289 389 -711 564 -711 49 0 71
29 128 165 54 130 127 260 199 352 31 41 72 94 90 119 l34 44 -22 45 c-13 27
-39 58 -66 77 -24 17 -44 33 -44 34 0 2 24 10 53 19 85 25 93 33 80 91 -6 27
-10 50 -9 51 1 2 34 -6 72 -17 116 -33 144 -23 160 57 15 74 -67 334 -154 493
-117 213 -271 407 -418 531 -41 34 -74 66 -74 70 0 5 18 18 40 29 22 11 40 24
40 29 0 14 -103 25 -147 16 -21 -4 -54 -16 -73 -26 -62 -35 -67 -45 -220 -449
-34 -91 -95 -234 -136 -318 -198 -404 -480 -703 -680 -720 -100 -8 -149 33
-220 183 -81 170 -144 405 -144 533 0 57 2 63 66 153 243 344 636 741 907 917
94 61 209 112 250 112 80 0 328 -156 562 -354 277 -233 591 -574 763 -828 l32
-47 -82 -110 c-46 -60 -92 -124 -103 -142 l-19 -34 29 20 c113 74 316 189 460
260 470 231 821 304 1255 264 209 -19 531 -86 718 -149 52 -17 98 -30 104 -28
10 4 -117 116 -212 189 l-35 26 59 148 c148 370 382 752 682 1111 163 194 276
284 360 284 17 0 75 -11 127 -24z m-184 -774 c157 -291 318 -517 509 -712
l122 -125 -19 -90 c-35 -165 -128 -383 -233 -547 -50 -79 -62 -89 -71 -65 -18
47 -169 226 -243 289 l-85 71 33 35 c18 18 59 54 91 79 68 52 71 74 18 110
-38 26 -140 58 -213 68 -27 3 -48 10 -48 15 0 5 32 57 72 116 69 102 71 107
52 121 -39 30 -212 -11 -322 -74 -24 -14 -46 -23 -49 -19 -9 9 34 241 64 346
36 125 81 245 126 335 46 92 103 185 114 185 5 0 41 -62 82 -138z m-4199 -489
c157 -167 318 -428 404 -652 16 -41 16 -43 -1 -37 -88 34 -269 47 -345 24 -72
-21 -68 -34 54 -143 l110 -99 -65 -21 c-108 -35 -214 -118 -205 -162 2 -8 48
-40 103 -70 136 -74 135 -73 94 -121 -50 -59 -115 -176 -163 -297 l-43 -106
-81 76 c-153 144 -288 330 -362 500 l-31 72 54 84 c152 234 271 527 362 890
31 127 32 129 44 129 5 0 37 -30 71 -67z m2910 -2677 c255 -46 451 -131 751
-326 118 -77 232 -132 345 -167 83 -25 101 -27 269 -27 154 0 191 3 259 22
100 28 250 99 331 157 35 25 66 45 68 45 13 0 17 -98 7 -175 -19 -151 -85
-302 -196 -446 -253 -328 -562 -570 -1325 -1036 -186 -113 -337 -208 -335
-210 14 -14 342 69 544 138 80 27 146 48 147 47 2 -2 8 -59 14 -128 15 -158
47 -340 122 -700 116 -549 149 -795 149 -1110 0 -223 -17 -381 -81 -757 -142
-839 -187 -1276 -175 -1670 l6 -203 -38 0 c-45 0 -138 -23 -196 -49 l-41 -18
75 -7 c173 -17 278 -57 372 -144 98 -91 146 -218 135 -359 -7 -90 -35 -156
-76 -177 -75 -39 -176 -51 -431 -51 -216 1 -257 4 -349 23 -134 30 -158 42
-184 100 -20 44 -21 71 -28 402 -10 460 -46 1133 -64 1188 -3 7 18 40 46 75
114 141 256 390 332 582 56 143 127 425 106 425 -5 0 -9 -5 -9 -12 0 -21 -127
-271 -183 -358 -231 -366 -509 -635 -800 -773 -98 -47 -276 -111 -284 -103 -9
9 -3 661 7 851 6 105 19 288 30 409 11 120 20 225 19 235 -1 49 -122 -324
-174 -539 -115 -479 -162 -1160 -109 -1605 20 -171 25 -155 -54 -155 -75 0
-199 -28 -258 -58 l-37 -19 114 -6 c245 -11 439 -118 522 -286 31 -63 32 -71
32 -186 0 -115 -1 -122 -30 -175 -36 -65 -78 -92 -180 -114 -129 -29 -273 -39
-465 -33 -172 6 -232 14 -350 47 -59 16 -113 73 -129 133 -14 58 -14 198 0
344 17 175 0 270 -166 933 -172 689 -282 1298 -286 1582 0 35 -4 83 -8 108
l-7 45 -12 -75 c-26 -169 -35 -296 -35 -495 2 -345 33 -649 127 -1220 29 -176
52 -321 50 -323 -1 -2 -19 5 -41 16 -58 30 -161 59 -236 67 -37 4 -67 8 -67 9
0 1 16 40 36 86 77 184 109 370 101 590 -6 168 -30 289 -84 425 -114 287 -273
460 -512 559 -120 50 -122 46 -33 -48 168 -178 279 -391 337 -647 25 -110 32
-417 11 -534 -50 -289 -158 -499 -319 -618 -71 -54 -183 -164 -175 -173 3 -2
21 3 42 11 20 8 91 29 159 46 160 40 338 50 449 25 156 -35 285 -124 341 -235
21 -43 23 -56 16 -122 -4 -41 -10 -118 -14 -171 l-7 -96 -71 -14 c-109 -20
-516 -17 -697 5 -162 20 -424 70 -473 91 -40 16 -97 113 -175 295 -123 286
-182 529 -203 839 -50 713 245 1513 861 2332 204 270 414 510 754 860 333 343
363 387 441 647 0 1 38 -7 85 -18 166 -39 409 -70 608 -76 105 -3 192 -4 192
-1 0 5 -25 15 -335 124 -450 158 -912 360 -1143 499 -279 168 -499 376 -582
551 -32 66 -70 217 -58 229 4 4 44 -7 90 -24 150 -56 232 -73 386 -78 218 -8
372 24 539 112 115 61 184 116 368 295 287 279 462 394 740 486 121 39 242 67
340 78 79 8 362 -3 445 -18z m-4595 -3827 c-48 -143 -95 -451 -95 -623 0 -319
64 -604 192 -861 95 -190 211 -337 366 -464 l89 -73 6 -141 c7 -154 27 -303
58 -436 10 -46 17 -86 14 -89 -16 -16 -344 136 -465 215 -166 109 -330 267
-446 430 -57 80 -156 277 -188 373 -29 88 -52 199 -61 290 -6 60 -5 63 9 45 9
-11 46 -59 83 -107 68 -88 91 -107 79 -65 -30 109 -40 225 -41 472 0 239 2
269 24 365 57 255 161 463 322 650 34 39 63 69 65 67 2 -2 -3 -23 -11 -48z
m6000 -1124 c149 -322 84 -732 -170 -1080 l-37 -50 6 50 c3 28 8 100 11 160
13 231 47 508 111 919 20 125 22 125 79 1z m-1611 -992 c8 -93 24 -451 32
-725 l6 -227 -93 6 c-104 6 -96 1 -149 95 -37 66 -145 188 -191 215 -33 20
-34 25 -53 244 -9 96 -18 192 -20 215 l-3 41 98 32 c95 31 294 123 334 155 11
8 23 16 26 16 4 0 10 -30 13 -67z m1698 -580 c124 -58 206 -175 216 -306 8
-119 -35 -173 -155 -192 l-43 -7 0 35 c0 57 -37 184 -77 260 -26 51 -64 98
-126 161 l-88 88 103 -4 c90 -3 112 -8 170 -35z"/>
<path d="M11918 13017 c-257 -73 -358 -467 -203 -794 52 -110 111 -177 198
-224 56 -31 70 -34 142 -34 64 0 89 5 124 24 98 52 181 169 216 306 35 139 11
345 -57 485 -43 89 -154 200 -223 224 -70 23 -142 28 -197 13z m85 -210 c44
-41 62 -101 48 -155 -20 -72 -78 -111 -137 -92 -97 32 -125 171 -49 247 45 45
90 45 138 0z"/>
<path d="M9605 12738 c-82 -31 -149 -97 -199 -195 -38 -77 -56 -165 -56 -284
0 -184 52 -332 157 -448 250 -277 603 -61 603 369 0 118 -20 200 -77 319 -52
108 -118 183 -198 221 -57 28 -179 37 -230 18z m224 -186 c82 -60 80 -219 -5
-259 -38 -19 -71 -12 -113 22 -78 66 -63 219 24 256 26 11 63 3 94 -19z"/>
<path d="M10865 11730 c-179 -36 -305 -93 -382 -172 -53 -54 -73 -102 -73
-173 0 -107 74 -249 183 -353 73 -68 207 -155 298 -191 l74 -30 8 -72 c9 -83
10 -83 -94 -159 -162 -121 -283 -170 -417 -170 -140 0 -255 44 -349 132 -29
28 -53 47 -53 41 0 -20 74 -131 118 -176 91 -93 268 -155 404 -142 144 13 272
65 434 172 l84 56 108 -36 c139 -47 168 -54 279 -67 249 -30 457 69 548 261
19 41 37 94 41 119 l6 45 -29 -45 c-96 -145 -240 -222 -418 -222 -51 0 -118 7
-155 17 -77 20 -277 102 -287 118 -5 7 -13 45 -18 85 l-11 72 56 37 c200 133
360 384 360 566 0 149 -104 252 -293 291 -104 22 -305 20 -422 -4z m365 -151
c48 -12 75 -32 67 -52 -8 -21 -120 -73 -198 -92 -102 -25 -261 -30 -348 -11
-85 18 -100 28 -81 51 19 23 115 70 181 89 113 33 282 40 379 15z"/>
</g>
</svg>
