<?xml version="1.0" standalone="no"?>
<!DOCTYPE svg PUBLIC "-//W3C//DTD SVG 20010904//EN"
 "http://www.w3.org/TR/2001/REC-SVG-20010904/DTD/svg10.dtd">
<svg version="1.0" xmlns="http://www.w3.org/2000/svg"
 width="1525.000000pt" height="2200.000000pt" viewBox="0 0 1525.000000 2200.000000"
 preserveAspectRatio="xMidYMid meet">

<g transform="translate(0.000000,2200.000000) scale(0.100000,-0.100000)"
fill="#000000" stroke="none">
<path d="M11859 21185 c-88 -17 -204 -67 -276 -117 -376 -262 -954 -985 -1408
-1760 -52 -89 -172 -315 -266 -502 -178 -351 -219 -416 -268 -416 -14 0 -78
11 -141 24 -625 132 -1370 76 -2048 -155 -79 -27 -230 -85 -337 -129 -236 -98
-310 -119 -351 -101 -18 8 -118 119 -266 294 -411 490 -713 793 -1168 1172
-601 500 -985 694 -1297 655 -256 -32 -604 -227 -973 -544 -304 -262 -727
-677 -997 -979 -306 -343 -526 -663 -579 -842 -23 -77 -23 -268 0 -410 35
-213 121 -511 223 -770 111 -281 194 -418 342 -565 106 -106 171 -146 291
-180 94 -27 303 -37 450 -22 79 8 110 8 130 -1 38 -19 90 -105 175 -292 208
-463 409 -777 704 -1104 127 -139 383 -363 524 -456 34 -23 60 -48 63 -62 10
-39 -5 -145 -57 -398 -195 -943 -209 -1040 -189 -1259 38 -422 230 -780 622
-1161 283 -276 599 -494 1070 -740 197 -104 307 -169 382 -228 36 -29 38 -33
32 -71 -17 -106 -130 -275 -330 -496 -28 -30 -172 -183 -321 -340 -943 -990
-1418 -1580 -1852 -2305 -453 -754 -730 -1401 -898 -2100 -77 -315 -118 -445
-141 -445 -34 0 -246 314 -334 495 -254 522 -320 1159 -189 1845 27 140 58
262 135 528 120 417 119 489 -5 605 -139 130 -320 141 -546 33 -135 -65 -254
-155 -410 -311 -209 -208 -372 -434 -509 -703 -130 -257 -200 -457 -265 -760
-56 -257 -72 -306 -131 -393 -119 -175 -170 -435 -156 -789 17 -442 112 -827
302 -1219 278 -575 663 -980 1288 -1357 305 -183 609 -321 916 -415 130 -39
218 -79 247 -110 12 -13 77 -134 145 -269 138 -276 211 -392 310 -496 78 -82
141 -119 278 -162 342 -108 806 -155 1715 -172 553 -11 673 -19 740 -50 22
-10 73 -47 114 -83 263 -231 585 -307 1251 -294 775 15 1040 86 1300 347 136
135 187 228 231 419 48 208 60 221 186 221 79 0 86 -2 113 -28 20 -20 38 -61
64 -143 42 -137 86 -210 179 -296 156 -145 402 -242 733 -288 354 -50 918 -31
1243 41 284 63 436 160 567 359 73 111 104 129 324 184 178 45 212 56 301 101
228 115 370 351 386 640 21 391 -248 881 -605 1100 -29 17 -94 46 -145 63 -57
20 -93 38 -95 47 -1 9 51 133 116 275 140 303 200 463 252 670 144 569 86
1081 -176 1555 -64 118 -144 232 -275 396 l-112 139 23 295 c65 849 24 1384
-180 2365 -183 880 -280 1440 -280 1618 0 138 22 163 301 356 380 263 615 457
884 732 197 201 342 378 467 569 264 401 390 796 375 1170 -12 273 -68 435
-486 1388 l-211 481 135 166 c168 206 266 354 372 560 189 370 298 704 418
1291 l48 231 141 6 c77 3 168 13 201 22 206 54 373 208 484 447 181 388 255
1156 150 1567 -54 211 -147 335 -414 550 -394 317 -1128 783 -1530 971 -27 13
-88 41 -135 63 -230 107 -518 203 -700 232 -114 18 -300 18 -391 0z m446 -549
c545 -147 1345 -613 2069 -1206 l177 -145 -6 -200 c-18 -599 -51 -865 -125
-1020 -77 -161 -226 -241 -403 -216 -272 38 -595 248 -988 640 -272 273 -441
479 -729 891 -237 339 -366 487 -475 540 -93 46 -298 28 -350 -30 -24 -26 -9
-44 56 -65 80 -27 76 -41 -95 -335 -199 -339 -319 -631 -396 -955 -85 -360
-101 -776 -35 -911 26 -54 69 -84 117 -84 38 1 100 35 143 79 54 57 78 55 113
-10 51 -96 87 -126 180 -149 54 -14 54 -27 2 -136 -22 -47 -40 -93 -40 -103 0
-30 55 -90 225 -249 236 -220 428 -422 529 -555 134 -178 196 -221 285 -197
55 15 147 87 217 170 254 303 434 785 434 1160 0 75 11 110 35 110 19 0 159
-73 201 -105 51 -39 58 -82 45 -250 -14 -166 -32 -279 -71 -435 -122 -491
-395 -1044 -663 -1341 l-32 -37 -210 261 c-323 402 -467 577 -526 637 -46 48
-53 52 -56 34 -5 -25 28 -106 199 -489 69 -154 213 -482 321 -730 286 -659
624 -1428 705 -1602 l71 -153 -101 -87 c-180 -158 -311 -235 -515 -302 -272
-90 -554 -103 -852 -39 -213 45 -354 111 -576 268 -572 404 -724 503 -910 594
-205 100 -424 173 -592 198 -127 19 -915 18 -1038 -1 -255 -39 -643 -201 -912
-381 -155 -104 -322 -249 -463 -401 -599 -651 -776 -815 -995 -920 -299 -144
-755 -171 -1150 -69 -133 34 -313 105 -399 157 l-58 36 5 46 c3 25 48 246 101
491 143 672 188 909 330 1745 47 275 94 553 106 618 23 138 24 145 10 131 -20
-20 -136 -247 -342 -669 -115 -236 -213 -433 -217 -438 -8 -8 -205 150 -335
268 -263 240 -556 647 -729 1015 -78 168 -145 332 -163 400 -13 53 -14 71 -4
104 11 38 74 129 147 215 l30 35 57 -176 c65 -200 145 -369 258 -541 226 -342
503 -593 679 -614 40 -5 53 -2 71 13 37 34 103 144 206 349 117 232 230 424
335 568 83 113 142 216 152 263 9 45 -14 93 -74 153 -106 106 -102 133 19 156
59 12 80 39 80 107 0 87 10 91 175 71 153 -18 178 -13 201 43 62 148 -15 452
-215 853 -167 333 -335 567 -631 879 -89 95 -173 186 -186 204 -33 45 -31 82
6 110 46 34 38 46 -36 53 -84 9 -176 -1 -237 -27 -115 -50 -206 -208 -362
-628 -283 -759 -597 -1307 -949 -1655 -207 -205 -396 -305 -576 -305 -167 0
-297 167 -428 551 -94 274 -142 499 -143 677 -1 82 2 98 30 158 92 196 395
549 897 1044 699 688 1041 905 1294 820 512 -171 1736 -1305 2199 -2038 l33
-53 -37 -57 c-21 -31 -77 -109 -125 -172 -83 -111 -130 -180 -130 -194 0 -24
69 8 295 139 283 164 847 436 1095 528 502 187 1188 251 1820 171 260 -33 387
-60 915 -198 156 -40 215 -50 215 -36 0 25 -40 66 -151 156 -139 112 -189 166
-189 205 0 91 240 618 446 982 274 481 713 1077 1020 1382 156 156 269 232
374 255 66 14 193 3 295 -24z m-375 -1288 c239 -456 563 -915 901 -1278 64
-69 140 -151 169 -183 l53 -58 -38 -142 c-63 -237 -148 -454 -285 -729 -82
-165 -146 -267 -181 -292 -36 -25 -68 2 -178 142 -117 150 -203 239 -347 358
-57 48 -103 91 -102 95 2 5 46 45 99 91 146 127 239 211 239 218 0 3 -36 28
-79 54 -89 53 -176 88 -266 105 -144 28 -205 43 -205 50 0 5 43 76 96 157 168
259 160 245 139 260 -55 41 -281 -5 -574 -115 l-84 -32 6 83 c14 201 189 802
305 1050 57 121 148 280 189 328 l27 33 20 -26 c12 -15 55 -91 96 -169z
m-7312 -867 c130 -112 317 -348 444 -561 129 -216 308 -562 308 -596 0 -23
-44 -26 -181 -15 -163 14 -270 14 -340 1 -60 -11 -201 -61 -197 -70 2 -4 65
-61 140 -128 144 -129 211 -199 205 -216 -2 -6 -57 -38 -123 -72 -165 -84
-274 -185 -274 -256 0 -34 38 -64 193 -150 60 -33 122 -72 138 -85 28 -24 28
-26 13 -54 -8 -16 -39 -66 -68 -112 -67 -102 -163 -286 -252 -480 -37 -81 -70
-146 -74 -145 -11 5 -269 289 -348 383 -161 192 -272 357 -380 565 l-80 155
120 200 c262 437 410 790 569 1360 65 231 100 335 113 335 3 0 36 -27 74 -59z
m4899 -4662 c378 -31 625 -105 1033 -309 176 -88 266 -139 475 -270 407 -255
773 -366 1139 -346 217 12 412 64 680 179 166 73 255 126 304 183 69 80 93 45
93 -135 -1 -567 -409 -1136 -1296 -1807 -348 -263 -706 -499 -1365 -902 -441
-269 -521 -321 -528 -341 -4 -11 5 -13 44 -7 147 19 631 145 839 217 66 23
146 49 177 57 55 16 58 16 85 -4 34 -26 51 -83 52 -179 2 -125 50 -413 186
-1110 227 -1163 265 -1441 265 -1930 0 -484 -43 -964 -130 -1460 -129 -730
-203 -1254 -249 -1760 -31 -341 -40 -505 -46 -871 -6 -338 -17 -511 -34 -543
-6 -11 -33 -21 -78 -28 -105 -18 -203 -52 -231 -80 -24 -24 -24 -25 -6 -44 21
-20 102 -39 171 -39 138 0 365 -113 501 -249 90 -90 152 -202 194 -349 32
-111 31 -291 -1 -381 -49 -139 -107 -184 -287 -220 -158 -32 -321 -44 -584
-44 -528 0 -831 67 -898 198 -19 38 -41 170 -51 320 -10 133 -16 325 -36 1025
-16 570 -36 944 -65 1252 l-20 207 108 143 c140 185 237 347 377 633 122 247
215 470 264 630 31 103 96 403 89 411 -3 2 -47 -76 -98 -174 -129 -244 -171
-317 -268 -467 -231 -356 -553 -735 -782 -921 -213 -174 -583 -393 -822 -488
-81 -32 -258 -80 -266 -72 -13 13 54 1943 84 2411 4 55 4 98 1 95 -11 -10
-140 -401 -187 -565 -150 -528 -255 -1213 -291 -1900 -13 -240 -7 -820 11
-1090 6 -88 11 -194 13 -235 l2 -75 -35 -17 c-20 -10 -80 -25 -135 -33 -276
-44 -353 -64 -362 -92 -5 -13 42 -29 112 -38 207 -27 355 -67 511 -140 204
-95 309 -185 374 -319 117 -241 117 -524 0 -706 -83 -129 -265 -180 -722 -201
-386 -17 -766 7 -940 61 -89 27 -182 90 -214 145 -35 61 -42 143 -54 660 -12
550 -11 543 -180 1250 -409 1712 -511 2231 -590 3005 -11 107 -23 206 -26 219
-13 59 -36 -37 -55 -234 -15 -154 -15 -921 0 -1195 21 -379 56 -668 161 -1320
48 -297 100 -657 100 -688 0 -27 -6 -26 -160 24 -124 40 -233 64 -298 65 -63
1 -96 12 -100 31 -2 9 19 76 47 150 280 750 210 1568 -185 2163 -120 180 -218
274 -441 422 -182 119 -357 203 -379 180 -12 -12 41 -91 138 -202 217 -252
300 -387 397 -647 132 -354 154 -480 155 -878 1 -460 -39 -716 -153 -981 -87
-201 -197 -349 -407 -545 -76 -71 -166 -156 -199 -189 -58 -58 -59 -60 -33
-63 14 -2 100 15 190 37 213 53 360 71 571 71 322 0 483 -42 660 -172 83 -61
190 -177 220 -238 20 -42 22 -58 21 -230 -1 -271 -35 -439 -93 -462 -45 -18
-335 -25 -641 -17 -381 11 -693 33 -990 70 -107 13 -481 98 -496 113 -28 27
-210 399 -278 567 -137 342 -256 748 -291 989 -24 171 -38 514 -31 765 12 444
39 665 116 974 264 1050 928 2236 1850 3304 204 237 350 397 725 792 351 369
467 499 579 645 180 234 251 368 265 500 l6 55 59 -3 c33 -1 192 -22 355 -47
585 -87 1043 -124 1104 -88 19 11 -31 44 -97 64 -294 89 -643 217 -1156 424
-738 298 -1073 463 -1445 710 -227 151 -363 261 -525 425 -239 240 -351 433
-406 698 -9 40 -13 80 -10 88 8 20 45 13 221 -43 274 -86 499 -118 760 -110
530 17 835 170 1455 734 550 499 822 679 1231 813 334 110 765 153 1176 119z
m-7791 -6665 c-3 -25 -19 -104 -36 -174 -68 -289 -84 -506 -77 -1012 7 -476
25 -627 104 -888 75 -248 199 -516 337 -725 110 -168 217 -295 447 -529 l209
-214 0 -158 c0 -181 19 -361 60 -582 35 -186 56 -349 47 -359 -33 -33 -588
250 -907 462 -453 301 -874 904 -1020 1461 -18 69 -27 132 -56 369 l-6 50 124
-155 c111 -137 168 -202 168 -189 0 2 -7 36 -15 74 -43 210 -68 1064 -37 1285
50 347 234 782 480 1135 59 84 158 195 175 195 6 0 7 -18 3 -46z m10388 -1866
c85 -138 137 -302 161 -508 33 -274 6 -516 -87 -795 -49 -149 -117 -292 -239
-505 l-94 -165 -6 75 c-26 308 28 922 137 1565 20 116 43 254 52 308 9 53 19
97 23 97 4 0 28 -33 53 -72z m-2770 -1765 c23 -113 66 -1044 66 -1423 0 -148
-4 -212 -13 -230 -14 -27 -15 -27 -97 -11 -30 6 -81 13 -113 17 -48 5 -66 12
-97 40 -21 20 -52 59 -68 87 -48 84 -113 165 -231 284 -113 115 -148 168 -169
255 -23 94 -53 357 -59 525 l-6 171 34 21 c39 24 88 44 264 107 72 25 173 67
225 91 218 104 254 113 264 66z m2835 -1003 c131 -32 204 -72 297 -165 125
-125 194 -276 196 -430 1 -90 -17 -146 -63 -198 -44 -51 -130 -97 -180 -97
-64 0 -88 41 -120 205 -44 217 -109 330 -336 588 l-104 117 113 0 c79 0 139
-6 197 -20z"/>
<path d="M10579 15811 c-112 -24 -134 -37 -210 -119 -112 -122 -186 -264 -208
-403 -14 -83 -14 -505 0 -589 27 -171 191 -439 343 -561 170 -137 353 -163
530 -75 253 126 398 382 413 731 13 290 -54 547 -192 740 -62 87 -215 229
-283 262 -51 25 -68 28 -182 30 -93 2 -147 -2 -211 -16z m95 -285 c49 -20 116
-85 137 -131 44 -96 14 -244 -64 -312 -71 -62 -161 -50 -244 34 -117 116 -109
249 22 372 59 56 87 63 149 37z"/>
<path d="M6675 15370 c-180 -28 -322 -142 -414 -333 -82 -170 -118 -363 -108
-582 17 -360 162 -660 393 -815 103 -68 191 -95 314 -94 111 0 171 17 258 74
147 94 286 352 328 606 29 179 5 414 -60 587 -140 373 -431 601 -711 557z
m256 -318 c92 -59 149 -154 149 -247 0 -98 -63 -194 -140 -215 -134 -36 -294
134 -266 284 9 47 80 151 124 181 47 32 78 31 133 -3z"/>
<path d="M8935 13630 c-334 -38 -678 -180 -834 -344 -28 -31 -64 -82 -79 -113
-25 -54 -27 -68 -27 -183 1 -112 4 -132 28 -195 108 -274 351 -507 734 -704
81 -41 153 -85 167 -102 49 -58 47 -198 -5 -268 -55 -77 -280 -228 -450 -303
-154 -68 -262 -91 -429 -92 -159 0 -221 11 -336 64 -81 37 -140 77 -242 168
-46 41 -85 72 -87 71 -7 -8 102 -193 148 -249 68 -85 166 -163 272 -215 263
-129 551 -125 914 15 74 29 213 105 374 205 103 64 125 64 330 -4 254 -83 320
-95 542 -95 163 0 202 3 278 22 349 87 556 290 625 610 11 50 19 92 17 92 -1
0 -21 -31 -43 -68 -92 -154 -297 -298 -502 -353 -128 -34 -335 -33 -482 4
-176 43 -401 139 -460 194 -51 49 -92 187 -74 257 4 17 38 49 104 97 196 146
351 330 457 544 84 169 118 293 119 430 0 107 -17 179 -60 246 -73 116 -264
211 -509 255 -108 18 -379 26 -490 14z m445 -290 c36 -6 81 -19 100 -28 111
-54 -33 -147 -323 -208 -147 -31 -435 -44 -556 -25 -104 16 -161 43 -161 75 0
72 241 171 475 195 106 11 372 6 465 -9z"/>
</g>
</svg>
